<svg xmlns="http://www.w3.org/2000/svg" width="568.711" height="649.002" viewBox="0 0 568.711 649.002">
  <g id="Logo_PFC" data-name="Logo PFC" transform="translate(-409 -1105)">
    <path id="Subtraction_87" data-name="Subtraction 87" d="M594.535,648h0l-98.7,0L332.207,478.561l.331-.319-.028-.028,87.477-87.86A199.1,199.1,0,0,0,474.853,287.13a201.087,201.087,0,0,0-.025-76.385,199.987,199.987,0,0,0-392.654,0A200.531,200.531,0,0,0,93.119,324.187a198.722,198.722,0,0,0,43.9,66.167l6.812,6.842-.614.614L393.4,648H27.5V250.5A252.558,252.558,0,0,1,32.686,200a249.669,249.669,0,0,1,37.846-89.578A251.732,251.732,0,0,1,180.91,19.679,249.978,249.978,0,0,1,227.975,5.088a253.428,253.428,0,0,1,101.052,0A249.63,249.63,0,0,1,418.69,42.77a251.746,251.746,0,0,1,90.946,110.208A249.759,249.759,0,0,1,524.315,200a252.6,252.6,0,0,1,5.185,50.5v46.084h-.671a250.465,250.465,0,0,1-3.685,24.972,245.456,245.456,0,0,1-65.834,124.31,243.889,243.889,0,0,1-32.957,27.977L594.534,648Z" transform="translate(382 1105.5)" stroke="#707070" stroke-width="1"/>
    <path id="Subtraction_89" data-name="Subtraction 89" d="M-14.981,1554.664l-88.43-88.816a124.186,124.186,0,0,1-27.435-41.354,125.189,125.189,0,0,1-6.857-23.161,126.244,126.244,0,0,1-2.28-23.871,125.988,125.988,0,0,1,2.3-23.87,124.956,124.956,0,0,1,6.869-23.156,124.263,124.263,0,0,1,27.46-41.336,124.244,124.244,0,0,1,41.347-27.45,125.266,125.266,0,0,1,23.157-6.862,125.9,125.9,0,0,1,23.872-2.287,125.832,125.832,0,0,1,23.869,2.287,125.16,125.16,0,0,1,23.161,6.862,124.259,124.259,0,0,1,41.345,27.45,124.162,124.162,0,0,1,27.459,41.336,124.706,124.706,0,0,1,6.87,23.156,126.042,126.042,0,0,1,2.3,23.87,126.081,126.081,0,0,1-2.28,23.871,124.932,124.932,0,0,1-6.856,23.161,124.232,124.232,0,0,1-27.436,41.354l-88.428,88.816h0ZM-14.964,1315a60.068,60.068,0,0,0-60,60,60.067,60.067,0,0,0,60,60,60.068,60.068,0,0,0,60-60A60.068,60.068,0,0,0-14.964,1315Z" transform="translate(672.982 -27.002)" fill="#ff4e00" stroke="#707070" stroke-width="1"/>
  </g>
</svg>
